# xmcd
#
# Track frame offsets:
#	150
#	14907
#	29159
#	47696
#	63859
#	105177
#	124529
#	146626
#	156655
#	177939
#	195975
#	211615
#
# Disc length: 3226 seconds
#
# Revision: 1
# Processed by: cddbd v1.4PL0 Copyright (c) Steve Scherf et al.
# Submitted via: audiograbber 1.82.02
#
DISCID=a40c980c
DTITLE=Bocephus King - A Small Good Thing
DYEAR=1998
DGENRE=
TTITLE0=What Am I Doing Here?
TTITLE1=A Small Good Thing
TTITLE2=The Haunting Of A New York Moon
TTITLE3=Blues For Buddy Bolden
TTITLE4=Hours Before Light
TTITLE5=Ruby
TTITLE6=Nowhere At All
TTITLE7=I'll Die In Mine
TTITLE8=Think About You
TTITLE9=Tired Of Waiting
TTITLE10=Heart Like Yours
TTITLE11=Land Of Plenty
EXTD=
EXTT0=
EXTT1=
EXTT2=
EXTT3=
EXTT4=
EXTT5=
EXTT6=
EXTT7=
EXTT8=
EXTT9=
EXTT10=
EXTT11=
PLAYORDER=
